<svg xmlns="http://www.w3.org/2000/svg" width="81" height="80" fill="none" viewBox="0 0 81 80">
    <rect width="80" height="80" x=".5" fill="#FDFBD9" rx="32"/>
    <rect width="40" height="40" x="20.5" y="20" fill="#FBEB06" rx="12"/>
    <path stroke="#41404E" stroke-linecap="round" stroke-linejoin="round" d="M48.667 38.6H32.333C31.045 38.6 30 39.645 30 40.933V49.1c0 1.289 1.045 2.333 2.333 2.333h16.334C49.955 51.433 51 50.39 51 49.1v-8.167c0-1.288-1.045-2.333-2.333-2.333zM34.666 38.6v-4.667c0-1.547.615-3.03 1.709-4.125 1.094-1.093 2.578-1.708 4.125-1.708 1.547 0 3.03.615 4.125 1.708 1.094 1.095 1.708 2.578 1.708 4.125V38.6M40.5 45v4M38.5 47h4"/>
</svg>
