<svg width="80" height="80" viewBox="0 0 80 80" fill="none" xmlns="http://www.w3.org/2000/svg">
<path d="M40.8 18.6001H25.4C24.233 18.6001 23.1139 19.0721 22.2887 19.9123C21.4636 20.7524 21 21.8919 21 23.0801V58.9201C21 60.1083 21.4636 61.2478 22.2887 62.0879C23.1139 62.9281 24.233 63.4001 25.4 63.4001H51.8C52.967 63.4001 54.0861 62.9281 54.9113 62.0879C55.7364 61.2478 56.2 60.1083 56.2 58.9201V34.2801V20.6001C56.2 19.4955 55.3046 18.6001 54.2 18.6001L40.8 18.6001Z" fill="#DADADA" stroke="#DADADA" stroke-linecap="round" stroke-linejoin="round"/>
<path d="M36.8 22.5999H21.4C20.233 22.5999 19.1139 23.0719 18.2887 23.912C17.4636 24.7522 17 25.8917 17 27.0799V62.9198C17 64.108 17.4636 65.2475 18.2887 66.0877C19.1139 66.9278 20.233 67.3998 21.4 67.3998H47.8C48.967 67.3998 50.0861 66.9278 50.9113 66.0877C51.7364 65.2475 52.2 64.108 52.2 62.9198V38.2799V30.6675C52.2 26.2775 48.6624 22.7077 44.2727 22.6678L36.8 22.5999Z" fill="#F4F4F4"/>
<rect x="38.6" y="13" width="24" height="24" rx="12" fill="#AEAEAE"/>
<rect x="49.7999" y="27.4001" width="8.8" height="1.6" rx="0.799999" transform="rotate(-90 49.7999 27.4001)" fill="#F4F4F4"/>
<rect x="49.7999" y="31.4001" width="1.6" height="1.6" rx="0.799999" transform="rotate(-90 49.7999 31.4001)" fill="#F4F4F4"/>
</svg>
