<svg width="95" height="152" viewBox="0 0 95 152" fill="none" xmlns="http://www.w3.org/2000/svg">
<path d="M25.3445 32.88H26.1047V12.0537C26.1047 10.4708 26.4165 8.90338 27.0222 7.44096C27.628 5.97853 28.5159 4.64974 29.6351 3.53045C30.7544 2.41116 32.0832 1.52329 33.5456 0.917538C35.0081 0.311782 36.5755 1.21276e-06 38.1584 0H82.2817C83.8647 -3.23395e-06 85.4321 0.311773 86.8945 0.917524C88.3569 1.52328 89.6857 2.41114 90.805 3.53043C91.9243 4.64972 92.8122 5.9785 93.4179 7.44092C94.0237 8.90334 94.3355 10.4708 94.3355 12.0537V126.308C94.3355 127.891 94.0237 129.459 93.4179 130.921C92.8122 132.384 91.9243 133.712 90.805 134.832C89.6857 135.951 88.3569 136.839 86.8945 137.445C85.4321 138.05 83.8647 138.362 82.2818 138.362H38.1585C34.9616 138.362 31.8957 137.092 29.6352 134.832C27.3747 132.571 26.1047 129.505 26.1047 126.308V47.7045H25.3445V32.88Z" fill="#767676"/>
<path d="M37.6722 3.136H43.4318C43.1669 3.78536 43.0658 4.4899 43.1374 5.18755C43.2089 5.88519 43.451 6.55454 43.8422 7.13661C44.2333 7.71868 44.7617 8.19562 45.3806 8.52541C45.9995 8.85521 46.69 9.02773 47.3913 9.02778H72.669C73.3703 9.02773 74.0609 8.85521 74.6798 8.52542C75.2987 8.19563 75.8271 7.71869 76.2183 7.13661C76.6094 6.55454 76.8515 5.8852 76.923 5.18755C76.9946 4.4899 76.8935 3.78535 76.6286 3.13599H82.0081C84.3954 3.13598 86.685 4.08436 88.3731 5.77248C90.0612 7.46059 91.0096 9.75017 91.0096 12.1375V126.225C91.0096 127.407 90.7768 128.577 90.3244 129.669C89.872 130.761 89.209 131.754 88.3731 132.59C87.5373 133.426 86.5449 134.089 85.4528 134.541C84.3607 134.993 83.1902 135.226 82.0081 135.226H37.6722C36.4901 135.226 35.3196 134.993 34.2275 134.541C33.1354 134.089 32.143 133.426 31.3072 132.59C30.4713 131.754 29.8082 130.761 29.3559 129.669C28.9035 128.577 28.6707 127.407 28.6707 126.225V12.1375C28.6707 10.9554 28.9035 9.78492 29.3559 8.6928C29.8082 7.60068 30.4713 6.60836 31.3072 5.77248C32.143 4.93661 33.1354 4.27356 34.2275 3.82119C35.3196 3.36882 36.4901 3.13599 37.6722 3.136Z" fill="white"/>
<path d="M68.8032 52.4456H50.9331V53.7887H68.8032V52.4456Z" fill="#767676"/>
<path d="M78.5284 56.3887H50.9331V57.7318H78.5284V56.3887Z" fill="#767676"/>
<path d="M73.7096 60.1437H51.22V61.4868H73.7096V60.1437Z" fill="#767676"/>
<path d="M44.977 52.0229H42.7888V54.2111H44.977V52.0229Z" fill="#767676"/>
<path d="M44.9765 55.9661H42.7883V58.1542H44.9765V55.9661Z" fill="#767676"/>
<path d="M44.9765 59.7213H42.7883V61.9095H44.9765V59.7213Z" fill="#767676"/>
<path d="M69.6028 39.0944H51.7327V40.4375H69.6028V39.0944Z" fill="#767676"/>
<path d="M71.8314 42.5844H49.3418V43.9275H71.8314V42.5844Z" fill="#767676"/>
<path d="M72.2825 25.2127C72.2818 27.2314 71.7575 29.2154 70.7609 30.971C69.7643 32.7265 68.3294 34.1936 66.5964 35.2289C64.8634 36.2642 62.8915 36.8324 60.8733 36.8779C58.8551 36.9234 56.8595 36.4448 55.0816 35.4886L55.0794 35.4864C53.2633 34.508 51.739 33.0657 50.6619 31.3064C49.5848 29.5471 48.9933 27.5337 48.9477 25.4713C48.9021 23.409 49.404 21.3714 50.4023 19.5662C51.4007 17.761 52.8597 16.2528 54.6308 15.1951C56.4018 14.1374 58.4216 13.5681 60.4844 13.5453C62.5471 13.5224 64.579 14.0468 66.3731 15.0649C68.1672 16.0831 69.6592 17.5587 70.6973 19.3413C71.7354 21.1239 72.2824 23.1499 72.2825 25.2127V25.2127Z" fill="#767676"/>
<path d="M60.6739 24.6462C62.4257 24.6462 63.8458 23.2261 63.8458 21.4743C63.8458 19.7225 62.4257 18.3024 60.6739 18.3024C58.9221 18.3024 57.502 19.7225 57.502 21.4743C57.502 23.2261 58.9221 24.6462 60.6739 24.6462Z" fill="white"/>
<path d="M66.0897 31.2002C62.5437 32.4448 58.6772 32.4299 55.1409 31.1578L55.1387 31.1562L57.5017 26.4916H63.8456L66.0897 31.2002Z" fill="white"/>
<path d="M52.659 92.5669C52.3845 92.6974 52.0853 92.7677 51.7815 92.7734L23.5822 93.5473C22.4085 93.5728 21.2728 93.1311 20.4248 92.3192C19.5769 91.5073 19.0861 90.3918 19.0606 89.2181C19.0351 88.0444 19.4769 86.9087 20.2888 86.0607C21.1006 85.2128 22.2161 84.722 23.3898 84.6965L51.5891 83.9227C52.1603 83.9109 52.7128 84.1261 53.1255 84.5212C53.5381 84.9162 53.7772 85.4588 53.7903 86.03L53.889 90.5722C53.8977 90.9878 53.7862 91.3971 53.568 91.7509C53.3499 92.1047 53.0342 92.388 52.659 92.5669Z" fill="#B5C02C"/>
<path d="M16.4764 152H11.933C11.3617 151.999 10.814 151.772 10.41 151.368C10.0061 150.964 9.77884 150.417 9.7782 149.845V111.978C9.77884 111.407 10.0061 110.859 10.41 110.455C10.814 110.051 11.3617 109.824 11.933 109.823H16.4764C17.0477 109.824 17.5954 110.051 17.9994 110.455C18.4033 110.859 18.6306 111.407 18.6312 111.978V149.845C18.6306 150.417 18.4033 150.964 17.9994 151.368C17.5954 151.772 17.0477 151.999 16.4764 152Z" fill="#B5C02C"/>
<path d="M28.541 152H23.9976C23.4263 151.999 22.8786 151.772 22.4746 151.368C22.0706 150.964 21.8434 150.417 21.8428 149.845V111.978C21.8434 111.407 22.0706 110.859 22.4746 110.455C22.8786 110.051 23.4263 109.824 23.9976 109.823H28.541C29.1123 109.824 29.66 110.051 30.064 110.455C30.468 110.859 30.6952 111.407 30.6958 111.978V149.845C30.6952 150.417 30.468 150.964 30.064 151.368C29.66 151.772 29.1123 151.999 28.541 152Z" fill="#B5C02C"/>
<path d="M26.0094 123.251H14.7153C12.3683 123.26 10.0607 122.649 8.02588 121.479C5.9911 120.309 4.30144 118.623 3.12793 116.59C1.95443 114.558 1.33873 112.251 1.34316 109.904C1.34759 107.557 1.972 105.253 3.15317 103.225L18.9476 75.868C19.1232 75.5638 19.3758 75.3112 19.68 75.1356C19.9842 74.96 20.3292 74.8676 20.6804 74.8676C21.0317 74.8676 21.3767 74.96 21.6809 75.1356C21.9851 75.3112 22.2376 75.5638 22.4133 75.868L37.8897 102.674C39.0937 104.759 39.7275 107.125 39.7275 109.533C39.7275 111.941 39.0936 114.307 37.8896 116.392C36.6856 118.477 34.9538 120.209 32.8684 121.413C30.783 122.617 28.4174 123.251 26.0094 123.251Z" fill="#41404E"/>
<path d="M16.9878 119.74C16.8574 119.465 16.787 119.166 16.7814 118.862L16.0074 90.6629C15.9819 89.4892 16.4237 88.3535 17.2355 87.5055C18.0474 86.6575 19.1629 86.1668 20.3366 86.1413C21.5103 86.1158 22.646 86.5576 23.494 87.3695C24.342 88.1813 24.8327 89.2968 24.8582 90.4705L25.632 118.67C25.6439 119.241 25.4286 119.793 25.0336 120.206C24.6385 120.619 24.0959 120.858 23.5248 120.871L18.9825 120.97C18.5669 120.978 18.1577 120.867 17.8038 120.649C17.45 120.431 17.1667 120.115 16.9878 119.74Z" fill="#B5C02C"/>
<path d="M20.6803 70.4585C29.3508 70.4585 36.3796 63.4298 36.3796 54.7593C36.3796 46.0888 29.3508 39.0601 20.6803 39.0601C12.0099 39.0601 4.98108 46.0888 4.98108 54.7593C4.98108 63.4298 12.0099 70.4585 20.6803 70.4585Z" fill="#B5C02C"/>
<path d="M24.3858 61.3496C25.4034 61.3213 26.6699 61.286 27.6457 60.5732C27.9362 60.3523 28.1749 60.0705 28.3451 59.7476C28.5153 59.4247 28.6128 59.0684 28.6307 58.7039C28.6484 58.4448 28.6059 58.1851 28.5065 57.9452C28.4072 57.7053 28.2537 57.4915 28.0581 57.3208C27.5485 56.8901 26.8043 56.7891 26.0023 57.0248L26.8332 50.9527L26.2233 50.8691L25.2465 58.0077L25.7558 57.7739C26.3463 57.5031 27.1569 57.3653 27.6607 57.7909C27.7844 57.9022 27.8807 58.0405 27.9423 58.1951C28.0038 58.3497 28.0289 58.5164 28.0155 58.6822C28.0006 58.9536 27.9274 59.2185 27.8009 59.459C27.6744 59.6995 27.4976 59.91 27.2825 60.076C26.5232 60.6307 25.5137 60.7022 24.3687 60.7342L24.3858 61.3496Z" fill="#41404E"/>
<path d="M33.1654 51.4763H29.8496V52.092H33.1654V51.4763Z" fill="#41404E"/>
<path d="M22.6994 51.4763H19.3835V52.092H22.6994V51.4763Z" fill="#41404E"/>
<path d="M19.2238 43.1542C21.1312 45.6487 24.1592 47.322 27.3595 46.9258C30.4071 46.5485 32.9213 44.4243 33.5521 41.3832C33.8274 39.9454 33.7532 38.4625 33.3355 37.0594C32.9178 35.6563 32.1689 34.3741 31.152 33.321C28.9949 31.0522 25.9078 29.8318 22.852 29.4133C17.0635 28.6205 11.1185 30.6595 6.74178 34.4624C4.54384 36.353 2.78944 38.7046 1.60335 41.3501C0.460782 43.976 -0.0833593 46.8232 0.0103388 49.6853C0.178515 55.3417 2.65612 60.9872 6.93115 64.7384C7.46209 65.2028 8.01783 65.6381 8.59591 66.0423C9.08347 66.3843 9.54545 65.584 9.06201 65.2449C4.68408 62.1737 1.89157 57.1764 1.12515 51.9256C0.723741 49.28 0.90274 46.5787 1.64973 44.0092C2.39671 41.4397 3.6938 39.0634 5.451 37.0453C8.98614 33.0257 14.1695 30.4131 19.5381 30.179C24.9401 29.9434 31.6909 32.3551 32.7018 38.3685C33.1549 41.0638 32.1474 43.8969 29.6775 45.2463C27.0331 46.691 23.7905 46.0965 21.518 44.2306C20.9616 43.7756 20.4593 43.258 20.0212 42.6881C19.665 42.2223 18.8626 42.6818 19.2238 43.1542H19.2238Z" fill="#41404E"/>
<path d="M61.985 87.4852C56.4564 87.4852 51.9585 82.7072 51.9585 76.8341C51.9585 70.9612 56.4564 66.1832 61.985 66.1832C67.5137 66.1832 72.0116 70.9612 72.0116 76.8341C72.0116 82.7072 67.5137 87.4852 61.985 87.4852ZM61.985 68.8745C57.9403 68.8745 54.6497 72.4451 54.6497 76.8341C54.6497 81.2231 57.9403 84.794 61.985 84.794C66.0298 84.794 69.3204 81.2231 69.3204 76.8341C69.3204 72.4451 66.0298 68.8745 61.985 68.8745Z" fill="#B5C02C"/>
<path d="M71.4798 106.047H52.4903C50.8157 106.045 49.2102 105.379 48.0261 104.195C46.842 103.011 46.176 101.405 46.1741 99.7308V81.1041C46.1754 79.9576 46.6314 78.8585 47.442 78.0478C48.2527 77.2371 49.3518 76.7811 50.4983 76.7798H73.4717C74.6182 76.7811 75.7173 77.2371 76.528 78.0478C77.3387 78.8585 77.7947 79.9576 77.796 81.1041V99.7308C77.7941 101.405 77.128 103.011 75.9439 104.195C74.7598 105.379 73.1544 106.045 71.4798 106.047Z" fill="#41404E"/>
<path d="M65.6855 87.3766C65.686 86.7188 65.5112 86.0728 65.179 85.505C64.8468 84.9372 64.3693 84.4683 63.7956 84.1465C63.2219 83.8246 62.5728 83.6616 61.9151 83.674C61.2574 83.6864 60.6149 83.874 60.0538 84.2173C59.4927 84.5606 59.0333 85.0473 58.7228 85.6272C58.4123 86.2071 58.262 86.8593 58.2874 87.5166C58.3128 88.1739 58.513 88.8126 58.8673 89.3668C59.2215 89.9211 59.7172 90.3708 60.3031 90.6698V96.4595H63.6671V90.6698C64.2744 90.3603 64.7844 89.8889 65.1406 89.3077C65.4968 88.7266 65.6854 88.0582 65.6855 87.3766Z" fill="white"/>
<path d="M15 58.9708C12.7895 59.1517 7.27368 58.6451 5 53" stroke="#AEAEAE" stroke-linecap="round" stroke-linejoin="round"/>
<path d="M19 65C15.8333 64.5 9 62.4 5 56" stroke="#AEAEAE" stroke-linecap="round" stroke-linejoin="round"/>
<path d="M27 54C24.2 54 17.5 57 15 58C15.5 62.5 18 65 19.5 66C28.5 67 32.5 65.1667 35.5 64C37 62.5 37.5 57 37 56.5C36.5 56 30.5 54 27 54Z" fill="#DADADA"/>
</svg>
