<svg width="40" height="40" viewBox="0 0 40 40" fill="none" xmlns="http://www.w3.org/2000/svg">
<path d="M0 12C0 5.37258 5.37258 0 12 0H28C34.6274 0 40 5.37258 40 12V28C40 34.6274 34.6274 40 28 40H12C5.37258 40 0 34.6274 0 28V12Z" fill="#B5C02C"/>
<path d="M28.0786 29.286C28.0786 30.0141 27.3987 30.8397 25.9047 31.512C24.4577 32.1632 22.4235 32.5789 20.15 32.5789C17.8765 32.5789 15.8423 32.1632 14.3953 31.512C12.9013 30.8397 12.2214 30.0141 12.2214 29.286C12.2214 28.558 12.9013 27.7323 14.3953 27.06C15.8423 26.4089 17.8765 25.9932 20.15 25.9932C22.4235 25.9932 24.4577 26.4089 25.9047 27.06C27.3987 27.7323 28.0786 28.558 28.0786 29.286Z" stroke="white"/>
<path d="M28.5 15.7711C28.5 18.7441 27.2325 21.4835 25.6391 23.7484C24.0477 26.0102 22.1582 27.7603 20.9792 28.7439C20.5021 29.142 19.8307 29.1308 19.3606 28.7153C18.1858 27.6769 16.285 25.8361 14.6815 23.5437C13.0733 21.2446 11.8 18.5426 11.8 15.7711C11.8 11.1596 15.5385 7.42114 20.15 7.42114C24.7616 7.42114 28.5 11.1596 28.5 15.7711Z" fill="#B5C02C" stroke="white"/>
<circle cx="20.15" cy="14.2961" r="3.1875" stroke="white"/>
</svg>
