<svg width="41" height="40" viewBox="0 0 41 40" fill="none" xmlns="http://www.w3.org/2000/svg">
<path d="M0.5 12C0.5 5.37258 5.87258 0 12.5 0H28.5C35.1274 0 40.5 5.37258 40.5 12V28C40.5 34.6274 35.1274 40 28.5 40H12.5C5.87258 40 0.5 34.6274 0.5 28V12Z" fill="white"/>
<path d="M28.5786 29.286C28.5786 30.0141 27.8987 30.8397 26.4047 31.512C24.9577 32.1632 22.9235 32.5789 20.65 32.5789C18.3765 32.5789 16.3423 32.1632 14.8953 31.512C13.4013 30.8397 12.7214 30.0141 12.7214 29.286C12.7214 28.558 13.4013 27.7323 14.8953 27.06C16.3423 26.4089 18.3765 25.9932 20.65 25.9932C22.9235 25.9932 24.9577 26.4089 26.4047 27.06C27.8987 27.7323 28.5786 28.558 28.5786 29.286Z" stroke="white"/>
<path d="M29 15.7711C29 18.7441 27.7325 21.4835 26.1391 23.7484C24.5477 26.0102 22.6582 27.7603 21.4792 28.7439C21.0021 29.142 20.3307 29.1308 19.8606 28.7153C18.6858 27.6769 16.785 25.8361 15.1815 23.5437C13.5733 21.2446 12.3 18.5426 12.3 15.7711C12.3 11.1596 16.0385 7.42114 20.65 7.42114C25.2616 7.42114 29 11.1596 29 15.7711Z" fill="#B5C02C" stroke="white"/>
<circle cx="20.6501" cy="14.2961" r="3.1875" stroke="white"/>
</svg>
