<svg xmlns="http://www.w3.org/2000/svg" width="155" height="37" fill="none" viewBox="0 0 155 37">
    <path fill="#0075FF" d="M59.464 12.13c-.172-.072-.36-.15-.556-.226-.242-.09-.5-.177-.775-.247-.503-.126-1.104-.226-1.645-.24-.393-.012-.756-.006-1.11.02-.218.016-.434.041-.65.08-.467.082-.933.19-1.385.317-.486.137-.954.294-1.4.465-.41.156-.826.397-1.22.602-.193.1-.404.257-.583.37-.22.134-.438.316-.59.436-.188.151-.404.291-.609.476-.056.05-.115.104-.171.16-.157.154-.315.316-.45.47-.188.207-.373.415-.56.644l-.004.003c-.12.148-.356.042-.328-.146L49.738.869C49.75.79 49.691.72 49.612.72 46.097.756 43.188 3.3 42.59 6.645l-.039.24-.236 1.432-.07.422-4.096 25.553-.236 1.481c-.011.079.048.149.127.149.21-.003.415-.014.62-.034 3.27-.308 5.904-2.795 6.43-5.987v.011l.008-.061c.002-.014.005-.028.005-.045l.775-4.845.025-.14c.006-.033.009-.067.014-.103l.037-.224c.005-.025.008-.05.014-.076.076-.4.188-.792.334-1.168.797-2.055 2.622-4.469 5.076-5.684.253-.126.84-.347 1.109-.44.3-.106 1.246-.372 1.934-.442.256-.025.722-.009.935.008.315.025.615.112.89.244.724.347 1.09.969 1.247 1.683.112.504.12 1.053.078 1.588l-.002.036c0 .006-.003.011-.003.017l-.099.627-.165 1.07-1.58 10.156-.58 3.64c-.013.079.051.152.133.149 3.296-.19 5.997-2.585 6.642-5.73l.101-.638 1.154-7.392.18-1.135h-.003c.011-.072.023-.148.031-.224.034-.268.034-.54.053-.815.214-2.985-.584-6.384-3.97-7.837zM20.155 1.882C9.661 1.882 1.757 8.742.202 19.008.051 19.91 0 20.812 0 21.713c0 8.765 5.896 14.472 15.183 14.472 11.348 0 20.155-8.812 20.155-19.882 0-8.86-5.744-14.421-15.183-14.421zm-4.72 29.363c-5.17 0-7.838-4.172-7.838-9.582 0-7.961 4.978-14.752 12.157-14.752 5.222 0 8.93 4.035 8.93 9.443 0 8.014-5.968 14.891-13.248 14.891zM78.425 0c-3.652.03-6.654 2.77-7.094 6.3 0-.002-.003-.005-.003-.005l-.55 3.45-1.786 12.237c-.011.079.048.149.126.149 3.549-.031 6.488-2.619 7.05-6.007l.022-.143.576-3.593L78.829.148C78.841.07 78.504 0 78.425 0zM74.593 24.802c-2.984.025-5.537 1.86-6.609 4.458-.2.484-.348.994-.438 1.523-.003.009-.003.017-.006.025l-.022.143-.124.776-.648 4.046c-.011.079.048.149.126.149 2.883-.026 5.36-1.736 6.491-4.195.25-.543.435-1.123.545-1.73l.03-.194.029-.182.059-.367.69-4.31c.015-.072-.044-.142-.123-.142zM122.559 11.086c-7.563 0-13.389 4.946-14.509 12.344-.109.65-.146 1.3-.146 1.949 0 6.317 4.38 10.43 11.073 10.43 8.178 0 14.655-6.35 14.655-14.328 0-6.388-4.27-10.395-11.073-10.395zm-3.293 19.986c-3.296 0-4.905-2.526-4.905-5.976 0-5.077 3.08-9.328 7.659-9.328 3.33 0 5.598 2.495 5.598 5.942 0 5.108-3.711 9.362-8.352 9.362zM101.497 18.893c-1.409-1.083-3.512-1.691-5.758-1.543.974-.252 2.114-.428 3.45-1.123.75-.372 1.943-1.478 2.774-2.906.82-1.412 1.471-3.778 1.471-6.178 0-2.08-1.134-4.15-2.583-5.244C99.737 1.056 98.308.64 96.738.45 96.126.378 95.52.358 94.891.35c-1.039-.017-3.097.073-4.265.129-4.553.215-6.98 3.39-7.409 7.098l-.002.003-4.453 27.83c-.014.078.047.15.129.15h6.283s4.52.096 6.457 0c4.689-.226 8.687-1.601 10.773-5.44.91-1.655 1.297-3.52 1.297-5.388.003-2.445-.601-4.607-2.204-5.839zm-13.6-3.447l.843-5.22c.404-2.458 1.387-4.911 4.228-5.275.266-.034.856-.062 1.126-.073 1.954-.073 2.512-.025 3.307.585.77.591.91 1.479.91 2.577 0 1.145-.31 2.321-.919 3.256-.699 1.075-1.429 1.997-3.324 2.8-.946.4-1.914.577-2.903.801-1.555.35-2.7.563-3.096.695-.096.03-.188-.05-.172-.146zm9.821 9.171c-.295 3.509-2.347 5.237-6.988 5.553-1.552.106-4.795 0-4.795 0h-.25c-.081 0-.143-.073-.129-.151 0 0 .556-3.288.738-4.383.601-3.646 2.446-4.486 4.422-4.878.536-.106 1.553-.168 1.904-.168 5.342 0 5.224 2.506 5.098 4.027zM154.997 15.063c-.631-2.898-3.321-4.072-6.218-4.139-.146-.003-.441-.005-.587 0-.511.017-1.606.135-1.606.135-.157 0-.275-.14-.25-.294l.854-5.327.609-3.752c.014-.078-.051-.151-.132-.148-3.397.182-6.193 2.637-6.87 5.877l-.107.658-.508 3.165-2.136 13.293-.059.372-.13.795h.003l-.033.23-.009.087c-.025.246-.028.498-.048.753-.117 1.596.045 3.304.711 4.794.62 1.383 1.676 2.576 3.352 3.302.177.075.368.156.573.235.247.095.513.185.797.257.517.132 1.137.238 1.696.255.407.011.777.011 1.142-.017.225-.016.45-.042.674-.08.48-.085.96-.194 1.429-.323.5-.137.986-.3 1.446-.473.309-.118.615-.28.755-.353.113-.059.396-.202.503-.263.216-.126.48-.3.651-.437.214-.17.508-.409.652-.552l.14-.142.907-5.657c.019-.12-.127-.193-.211-.106-.8.831-1.741 1.565-2.796 2.083-.261.129-.865.353-1.146.45-.165.057-.516.16-.918.256-.353.084-.746.16-1.078.193-.261.025-.741.005-.963-.014-.323-.028-.631-.118-.915-.255-.744-.361-1.117-1.002-1.277-1.739-.113-.518-.121-1.084-.076-1.635l.003-.037.002-.02.104-.646.124-.773.053-.328 1.32-8.221c.019-.123.126-.213.25-.213l5.887-.66 3.321-.43c.07-.002.132-.078.115-.156z"/>
</svg>
