<svg xmlns="http://www.w3.org/2000/svg" width="335" height="240" fill="none" viewBox="0 0 335 240">
    <rect width="335" height="240" fill="#FBFBFB" rx="12"/>
    <path fill="#767676" d="M168.391 203.642h-.045c-1.682 0-3.384-.05-5.06-.149l.025-.423c1.668.098 3.362.148 5.035.148h.045v.424zm5.106-.155l-.025-.423c1.685-.101 3.388-.254 5.061-.456l.051.42c-1.682.204-3.393.358-5.085.459h-.002zm-15.298-.448c-1.684-.201-3.384-.456-5.051-.759l.076-.417c1.659.301 3.35.555 5.025.756l-.05.42zm25.435-.775l-.077-.418c1.66-.302 3.332-.661 4.969-1.064l.102.412c-1.645.405-3.326.765-4.995 1.069l.001.001zm-35.481-1.049c-1.647-.403-3.303-.863-4.922-1.365l.126-.405c1.611.5 3.258.957 4.897 1.358l-.101.412zm45.395-1.393l-.126-.405c1.608-.501 3.223-1.059 4.802-1.659l.151.397c-1.586.603-3.211 1.164-4.827 1.668v-.001zm-55.156-1.638c-1.586-.601-3.177-1.259-4.727-1.957l.174-.387c1.542.695 3.124 1.349 4.703 1.947l-.15.397zm64.694-1.984l-.175-.387c1.536-.691 3.071-1.441 4.562-2.226l.197.375c-1.499.79-3.041 1.543-4.584 2.239v-.001zm-74.019-2.213c-1.504-.79-3.002-1.636-4.453-2.514l.22-.362c1.443.874 2.934 1.716 4.43 2.502l-.197.374zm83.047-2.535l-.22-.361c1.442-.874 2.877-1.803 4.263-2.762l.241.349c-1.395.962-2.837 1.896-4.284 2.774zm-91.789-2.756c-1.397-.965-2.782-1.985-4.116-3.031l.263-.333c1.327 1.041 2.705 2.055 4.095 3.015l-.242.349zm100.183-3.048l-.264-.334c1.331-1.044 2.644-2.138 3.902-3.256l.282.317c-1.265 1.122-2.584 2.222-3.922 3.272l.002.001zm-108.224-3.256c-1.27-1.125-2.522-2.302-3.721-3.501l.3-.3c1.193 1.192 2.438 2.365 3.702 3.484l-.281.317zm115.864-3.519l-.3-.3c1.195-1.195 2.368-2.44 3.487-3.701l.317.282c-1.124 1.267-2.303 2.518-3.503 3.719h-.001zm-123.088-3.7c-1.126-1.269-2.227-2.588-3.273-3.92l.333-.263c1.041 1.325 2.138 2.637 3.257 3.9l-.317.283zm129.864-3.939l-.334-.263c1.044-1.331 2.059-2.709 3.017-4.093l.349.241c-.962 1.393-1.983 2.777-3.032 4.115zm-136.17-4.086c-.965-1.395-1.9-2.836-2.777-4.282l.362-.221c.873 1.44 1.803 2.874 2.763 4.262l-.348.241zm141.982-4.318l-.361-.219c.875-1.445 1.717-2.935 2.503-4.429l.375.197c-.79 1.501-1.636 2.998-2.517 4.451zm-147.273-4.405c-.79-1.499-1.543-3.041-2.24-4.584l.387-.174c.693 1.534 1.443 3.069 2.228 4.56l-.375.198zm152.032-4.643l-.387-.174c.696-1.546 1.352-3.127 1.949-4.703l.397.15c-.601 1.584-1.26 3.174-1.959 4.726v.001zm-156.229-4.65c-.603-1.585-1.165-3.209-1.67-4.826l.404-.127c.503 1.609 1.062 3.225 1.662 4.802l-.396.151zm159.857-4.914l-.404-.126c.501-1.611.959-3.258 1.361-4.896l.411.101c-.404 1.646-.864 3.302-1.368 4.921zm-162.901-4.832c-.406-1.645-.766-3.325-1.072-4.994l.417-.077c.304 1.661.663 3.333 1.067 4.969l-.412.102zm165.336-5.084l-.417-.076c.301-1.659.556-3.349.756-5.025l.421.051c-.2 1.683-.457 3.384-.76 5.05zm-167.175-4.96c-.204-1.681-.36-3.392-.46-5.086l.422-.026c.102 1.685.257 3.388.46 5.061l-.422.051zm168.393-5.177l-.423-.025c.099-1.682.151-3.391.151-5.08v-.179h.424v.179c0 1.697-.051 3.414-.152 5.105zM84.188 119.15h-.424v-.09c0-1.668.049-3.355.146-5.014l.423.025c-.097 1.651-.146 3.33-.146 4.99v.089zm168.154-5.349c-.104-1.687-.261-3.39-.465-5.061l.421-.051c.205 1.679.362 3.39.467 5.086l-.423.026zm-167.56-4.793l-.421-.05c.2-1.684.454-3.383.756-5.051l.418.076c-.3 1.659-.554 3.35-.753 5.025zm166.326-5.291c-.307-1.663-.667-3.335-1.072-4.966l.411-.103c.407 1.642.77 3.323 1.078 4.993l-.417.076zM86.591 99.011l-.412-.101c.402-1.645.86-3.302 1.363-4.922l.405.125c-.5 1.612-.956 3.26-1.356 4.898zm162.073-5.155c-.504-1.61-1.065-3.225-1.667-4.802l.395-.151c.605 1.584 1.169 3.207 1.677 4.825l-.405.128zM89.602 89.298l-.397-.15c.6-1.587 1.258-3.178 1.955-4.728l.386.174c-.693 1.543-1.347 3.125-1.944 4.704zm155.443-4.926c-.695-1.534-1.447-3.068-2.234-4.558l.375-.197c.792 1.497 1.546 3.039 2.245 4.58l-.386.175zM93.772 80.018l-.375-.197c.786-1.5 1.631-3 2.511-4.454l.362.22c-.874 1.447-1.715 2.938-2.498 4.431zm146.533-4.62c-.875-1.438-1.806-2.87-2.768-4.257l.348-.242c.967 1.394 1.903 2.834 2.782 4.28l-.362.22zM99.032 71.315l-.35-.241c.963-1.395 1.982-2.78 3.029-4.117l.334.26c-1.04 1.332-2.055 2.71-3.013 4.098zm135.484-4.26c-1.044-1.326-2.142-2.637-3.261-3.897l.317-.281c1.125 1.265 2.227 2.583 3.277 3.916l-.333.262zM105.3 63.312l-.318-.282c1.124-1.27 2.303-2.522 3.499-3.722l.3.3c-1.192 1.194-2.363 2.44-3.481 3.704zm122.467-3.849c-1.198-1.193-2.445-2.364-3.706-3.48l.28-.317c1.268 1.121 2.522 2.298 3.725 3.497l-.299.3zM112.478 56.12l-.282-.318c1.265-1.124 2.584-2.226 3.918-3.275l.263.333c-1.327 1.044-2.64 2.14-3.899 3.26zm107.674-3.388c-1.328-1.04-2.707-2.053-4.098-3.012l.241-.349c1.398.964 2.783 1.982 4.118 3.026l-.261.335zm-99.69-2.89l-.241-.35c1.393-.965 2.833-1.9 4.281-2.78l.22.363c-1.44.874-2.873 1.805-4.26 2.766zm91.319-2.88c-1.448-.874-2.939-1.714-4.433-2.497l.198-.376c1.501.787 3 1.631 4.455 2.51l-.22.362zm-82.642-2.39l-.197-.375c1.498-.79 3.04-1.546 4.582-2.242l.175.386c-1.535.694-3.069 1.445-4.559 2.231h-.001zm73.633-2.33c-1.543-.69-3.124-1.345-4.705-1.94l.15-.397c1.587.6 3.178 1.256 4.729 1.952l-.174.385zm-64.389-1.85l-.151-.394c1.586-.605 3.21-1.167 4.827-1.673l.127.404c-1.61.502-3.226 1.062-4.804 1.663h.001zm54.867-1.743c-1.611-.499-3.26-.954-4.898-1.354l.101-.411c1.644.401 3.302.859 4.923 1.36l-.126.405zm-45.171-1.29l-.102-.41c1.647-.408 3.327-.77 4.994-1.075l.076.417c-1.658.304-3.329.664-4.966 1.069h-.002zm35.302-1.118c-1.657-.299-3.348-.551-5.027-.75l.05-.42c1.687.199 3.386.452 5.052.753l-.075.417zm-25.31-.718l-.052-.42c1.681-.205 3.392-.363 5.087-.465l.025.423c-1.686.103-3.388.258-5.06.46v.002zm15.22-.477c-1.637-.095-3.301-.143-4.945-.143h-.135v-.424h.135c1.652 0 3.325.048 4.97.144l-.025.423z"/>
    <path fill="#767676" d="M250.757 170.344h-52.455c-2.181 0-3.949 1.768-3.949 3.95v37.366c0 2.182 1.768 3.95 3.949 3.95h52.455c2.182 0 3.95-1.768 3.95-3.95v-37.366c0-2.182-1.768-3.95-3.95-3.95z"/>
    <path fill="#fff" d="M245.654 182.415h-42.248c-.834 0-1.509.676-1.509 1.509 0 .833.675 1.509 1.509 1.509h42.248c.833 0 1.509-.676 1.509-1.509 0-.833-.676-1.509-1.509-1.509zM245.654 191.468h-42.248c-.834 0-1.509.676-1.509 1.509 0 .834.675 1.509 1.509 1.509h42.248c.833 0 1.509-.675 1.509-1.509 0-.833-.676-1.509-1.509-1.509zM245.654 200.521h-42.248c-.834 0-1.509.676-1.509 1.509 0 .834.675 1.509 1.509 1.509h42.248c.833 0 1.509-.675 1.509-1.509 0-.833-.676-1.509-1.509-1.509z"/>
    <path fill="#DADADA" d="M119.208 25H84.95C82.768 25 81 26.768 81 28.95v23.718c0 2.182 1.768 3.95 3.95 3.95h34.258c2.181 0 3.949-1.768 3.949-3.95V28.95c0-2.182-1.768-3.95-3.949-3.95z"/>
    <path fill="#fff" d="M116.833 33.431h-29.51c-.581 0-1.053.472-1.053 1.055 0 .582.472 1.053 1.053 1.053h29.51c.583 0 1.054-.471 1.054-1.053 0-.583-.471-1.054-1.054-1.054zM116.833 39.755h-29.51c-.581 0-1.053.472-1.053 1.054 0 .582.472 1.054 1.053 1.054h29.51c.583 0 1.054-.472 1.054-1.054 0-.582-.471-1.054-1.054-1.054zM116.833 46.078h-29.51c-.581 0-1.053.472-1.053 1.054 0 .583.472 1.054 1.053 1.054h29.51c.583 0 1.054-.471 1.054-1.054 0-.582-.471-1.053-1.054-1.053z"/>
    <path fill="#767676" d="M137.125 41.336h-34.259c-2.181 0-3.95 1.768-3.95 3.95v23.718c0 2.181 1.769 3.95 3.95 3.95h34.259c2.181 0 3.949-1.769 3.949-3.95V45.285c0-2.18-1.768-3.95-3.949-3.95z"/>
    <path fill="#fff" d="M134.75 49.767h-29.51c-.582 0-1.054.472-1.054 1.054 0 .582.472 1.054 1.054 1.054h29.51c.582 0 1.054-.472 1.054-1.054 0-.582-.472-1.054-1.054-1.054zM134.75 56.09h-29.51c-.582 0-1.054.473-1.054 1.055s.472 1.054 1.054 1.054h29.51c.582 0 1.054-.472 1.054-1.054 0-.582-.472-1.054-1.054-1.054zM134.75 62.414h-29.51c-.582 0-1.054.472-1.054 1.054 0 .582.472 1.054 1.054 1.054h29.51c.582 0 1.054-.472 1.054-1.054 0-.582-.472-1.054-1.054-1.054z"/>
    <path fill="#DADADA" d="M119.603 162.05H85.345c-2.182 0-3.95 1.768-3.95 3.949v23.719c0 2.181 1.768 3.95 3.95 3.95h34.258c2.181 0 3.949-1.769 3.949-3.95v-23.719c0-2.181-1.768-3.949-3.949-3.949z"/>
    <path fill="#fff" d="M117.229 170.481h-29.51c-.582 0-1.054.472-1.054 1.054 0 .582.471 1.054 1.054 1.054h29.51c.582 0 1.053-.472 1.053-1.054 0-.582-.471-1.054-1.053-1.054zM117.229 176.805h-29.51c-.582 0-1.054.471-1.054 1.054 0 .582.471 1.054 1.054 1.054h29.51c.582 0 1.053-.472 1.053-1.054 0-.583-.471-1.054-1.053-1.054zM117.229 183.128h-29.51c-.582 0-1.054.472-1.054 1.054 0 .582.471 1.054 1.054 1.054h29.51c.582 0 1.053-.472 1.053-1.054 0-.582-.471-1.054-1.053-1.054z"/>
    <path fill="#9CA48D" d="M165.158 74.935s-30.532 12.53-33.803 13.892c-3.271 1.362-4.907 4.631-4.907 7.9s-2.453 45.921 38.71 66.544c0 0 3.735 1.033 6.57 0 2.834-1.033 38.818-18.466 38.818-66.68 0 0 0-4.903-5.725-7.627-5.724-2.724-33.402-14.029-33.402-14.029s-3.399-1.498-6.261 0z"/>
    <path fill="#000" d="M163.053 86.196c1.564-.674 3.307.473 3.307 2.176v59.51c0 1.748-1.779 2.833-3.248 1.884-7.743-5.001-26.679-20.283-27.112-50.347-.013-.94.552-1.804 1.416-2.176l25.637-11.047z" opacity=".1"/>
    <path fill="#fff" d="M165.806 123.075c-.026.892.773 1.535 1.665 1.535 1.155 0 1.992-1.078 2.246-2.205 1.145-5.075 9.684-6.897 9.684-13.006 0-5.269-4.123-8.567-10.583-8.567-4.342 0-7.611 1.593-10.378 4.117-.693.633-.651 1.717.037 2.355.679.628 1.729.585 2.426-.021 2.32-2.02 4.805-3.015 7.457-3.015 4.673 0 6.964 2.291 6.964 5.452 0 4.853-9.336 6.977-9.518 13.355zm2.096 12.851c1.603 0 2.932-1.191 2.932-3.024 0-1.832-1.329-3.069-2.932-3.069-1.65 0-2.978 1.237-2.978 3.069 0 1.833 1.328 3.024 2.978 3.024z"/>
</svg>
