<svg xmlns="http://www.w3.org/2000/svg" width="335" height="240" fill="none" viewBox="0 0 335 240">
    <rect width="335" height="240" fill="#FBFBFB" rx="12"/>
    <path fill="#DADADA" d="M215.093 162.284c.518 1.876-.583 3.816-2.459 4.333l-106.681 29.421c-1.875.517-3.815-.584-4.332-2.46L66.128 64.881c-.518-1.875.584-3.815 2.46-4.332l106.68-29.421c1.875-.518 3.815.584 4.333 2.46l35.492 128.696z"/>
    <path fill="#767676" d="M153.97 90.888l-28.444 7.844c-.402.11-.83.057-1.192-.148-.362-.206-.627-.546-.738-.947l-7.845-28.445c-.11-.4-.057-.83.149-1.191.205-.362.546-.628.947-.739l28.444-7.844c.401-.11.83-.057 1.192.148.361.206.627.546.738.947l7.845 28.445c.11.4.056.83-.149 1.191-.206.362-.546.628-.947.739zm-36.956-23.02c-.241.066-.445.226-.569.443-.123.217-.155.474-.089.715l7.845 28.444c.066.24.226.445.443.568.217.123.474.155.715.09l28.444-7.845c.241-.067.445-.226.568-.443.123-.218.155-.475.089-.716l-7.844-28.444c-.067-.24-.226-.444-.443-.568-.217-.123-.475-.155-.715-.089l-28.444 7.845z"/>
    <path fill="#767676" d="M146.759 96.621l-28.444 7.845c-.361.099-.747.051-1.072-.134-.326-.185-.565-.492-.665-.853l-7.845-28.444c-.099-.36-.051-.747.134-1.072.185-.326.492-.565.853-.665l28.444-7.844c.361-.1.747-.051 1.072.133.326.185.565.492.665.853l7.844 28.444c.1.36.051.747-.133 1.072-.185.326-.492.565-.853.665zM178.177 100.927l-76.309 21.045c-.847.234-1.345 1.11-1.111 1.957.234.847 1.11 1.344 1.957 1.11l76.309-21.045c.847-.233 1.344-1.109 1.11-1.956-.233-.847-1.109-1.345-1.956-1.111zM180.383 108.925l-76.31 21.045c-.847.233-1.344 1.109-1.11 1.956.233.847 1.109 1.345 1.956 1.111l76.309-21.045c.847-.233 1.345-1.109 1.111-1.957-.233-.847-1.109-1.344-1.956-1.11zM182.588 116.922l-76.309 21.045c-.847.234-1.344 1.11-1.111 1.957.234.847 1.11 1.344 1.957 1.111l76.309-21.045c.847-.234 1.344-1.11 1.111-1.957-.234-.847-1.11-1.344-1.957-1.111zM186.47 130.998l-76.309 21.045c-.847.234-1.344 1.11-1.111 1.957.234.847 1.11 1.344 1.957 1.111l76.309-21.045c.847-.234 1.344-1.11 1.111-1.957-.234-.847-1.11-1.344-1.957-1.111zM188.675 138.996l-76.309 21.045c-.847.233-1.344 1.109-1.11 1.956.233.847 1.109 1.345 1.956 1.111l76.309-21.045c.847-.233 1.345-1.109 1.111-1.957-.233-.847-1.109-1.344-1.957-1.11zM190.881 146.993l-76.309 21.045c-.847.234-1.344 1.11-1.111 1.957.234.847 1.11 1.344 1.957 1.111l76.309-21.045c.847-.234 1.344-1.11 1.111-1.957-.234-.847-1.11-1.344-1.957-1.111z"/>
    <path fill="#F4F4F4" d="M252.353 192.999c0 1.946-1.577 3.523-3.522 3.523H138.167c-1.945 0-3.523-1.577-3.523-3.523V59.498c0-1.946 1.578-3.523 3.523-3.523h110.664c1.945 0 3.522 1.577 3.522 3.523v133.501z"/>
    <path fill="#9CA48D" d="M229.331 116.394h-64.117c-.878 0-1.591.712-1.591 1.591s.713 1.591 1.591 1.591h64.117c.879 0 1.591-.712 1.591-1.591s-.712-1.591-1.591-1.591zM229.331 124.667h-64.117c-.878 0-1.591.712-1.591 1.591s.713 1.591 1.591 1.591h64.117c.879 0 1.591-.712 1.591-1.591s-.712-1.591-1.591-1.591zM229.331 132.94h-64.117c-.878 0-1.591.712-1.591 1.591s.713 1.591 1.591 1.591h64.117c.879 0 1.591-.712 1.591-1.591s-.712-1.591-1.591-1.591zM158.152 120.528c1.147 0 2.077-.93 2.077-2.077 0-1.147-.93-2.076-2.077-2.076-1.147 0-2.077.929-2.077 2.076s.93 2.077 2.077 2.077z"/>
    <path fill="#DADADA" d="M229.331 80.746h-64.117c-.878 0-1.591.713-1.591 1.591 0 .879.713 1.591 1.591 1.591h64.117c.879 0 1.591-.712 1.591-1.59 0-.88-.712-1.592-1.591-1.592zM229.331 89.02h-64.117c-.878 0-1.591.712-1.591 1.59 0 .879.713 1.591 1.591 1.591h64.117c.879 0 1.591-.712 1.591-1.59 0-.88-.712-1.592-1.591-1.592zM229.331 97.292h-64.117c-.878 0-1.591.712-1.591 1.59 0 .88.713 1.592 1.591 1.592h64.117c.879 0 1.591-.712 1.591-1.591s-.712-1.591-1.591-1.591zM158.152 84.534c1.147 0 2.077-.93 2.077-2.077 0-1.146-.93-2.076-2.077-2.076-1.147 0-2.077.93-2.077 2.076 0 1.147.93 2.077 2.077 2.077zM229.331 152.388h-64.117c-.878 0-1.591.712-1.591 1.591s.713 1.591 1.591 1.591h64.117c.879 0 1.591-.712 1.591-1.591s-.712-1.591-1.591-1.591zM229.331 160.661h-64.117c-.878 0-1.591.712-1.591 1.591s.713 1.591 1.591 1.591h64.117c.879 0 1.591-.712 1.591-1.591s-.712-1.591-1.591-1.591zM229.331 168.934h-64.117c-.878 0-1.591.712-1.591 1.591s.713 1.591 1.591 1.591h64.117c.879 0 1.591-.712 1.591-1.591s-.712-1.591-1.591-1.591zM158.152 156.176c1.147 0 2.077-.93 2.077-2.077 0-1.147-.93-2.077-2.077-2.077-1.147 0-2.077.93-2.077 2.077 0 1.147.93 2.077 2.077 2.077z"/>
    <path fill="#9CA48D" d="M246.858 208.624c13.287 0 24.059-10.771 24.059-24.059 0-13.287-10.772-24.059-24.059-24.059s-24.059 10.772-24.059 24.059c0 13.288 10.772 24.059 24.059 24.059z"/>
    <path fill="#fff" d="M253.524 183.031v-4.604c0-.875-.172-1.743-.506-2.552-.335-.809-.826-1.545-1.445-2.164-.619-.62-1.354-1.111-2.163-1.446-.809-.336-1.676-.508-2.552-.508-.876 0-1.743.172-2.552.508-.809.335-1.544.826-2.163 1.446-.619.619-1.11 1.355-1.445 2.164-.334.809-.506 1.677-.506 2.552v4.604c-.891.04-1.732.422-2.348 1.066-.617.645-.961 1.502-.962 2.394v9.822c0 .584.473 1.057 1.057 1.057h17.838c.583 0 1.057-.473 1.057-1.057v-9.822c-.001-.892-.345-1.749-.962-2.394-.616-.644-1.457-1.026-2.348-1.066zm-6.666-8.923c1.145.002 2.243.457 3.052 1.267.81.81 1.265 1.907 1.267 3.052v4.596h-8.638v-4.596c.002-1.145.457-2.242 1.267-3.052.809-.81 1.907-1.265 3.052-1.267z"/>
    <path fill="#9CA48D" d="M248.651 188.403c.001-.309-.079-.613-.231-.883-.152-.269-.372-.494-.636-.654-.265-.159-.567-.248-.876-.256-.309-.009-.615.062-.888.207-.274.145-.505.357-.672.618-.167.26-.263.559-.281.868-.017.309.046.616.183.894.137.277.344.514.599.688v3.898h2.018v-3.898c.241-.164.439-.385.576-.644.137-.258.208-.546.208-.838z"/>
</svg>
