<svg xmlns="http://www.w3.org/2000/svg" width="335" height="240" fill="none" viewBox="0 0 335 240">
    <rect width="335" height="240" fill="#FBFBFB" rx="12"/>
    <g clip-path="url(#clip0)">
        <path fill="#9CA48D" d="M207.121 132.868l2.057-.761c-4.69-12.752-3.723-10.119 1.295-13.04 4.011 3.003 6.479 5.718 12.649 14.479l2.735-1.933c-12.443-17.626-9.81-16.083-6.499-19.641 2.283 1.09 4.422 2.632 8.803 6.273l1.399-1.687c-4.361-3.64-6.376-5.245-7.857-7.363 2.838-3.681.925-6.972 20.629 2.118l1.398-3.043c-19.806-9.153-16.124-8.515-14.788-14.706 2.51-.185 5.142.082 10.736 1.05l.371-2.16c-12.896-2.222-10.222-1.605-10.222-7.158 4.381-1.83 8.062-2.57 18.366-3.517l-.308-3.352c-21.308 1.933-18.14.74-19.827-4.71 2.201-1.563 4.545-2.653 10.222-4.751l-.761-2.057c-5.656 2.078-8.042 3.003-10.818 3.147-1.872-4.422-5.821-4.38 12.237-17.112l-1.933-2.756c-8.741 6.17-11.559 8.289-16.742 9.502-.925-1.049-1.892-2.056-2.9-3.002 1.09-2.283 2.633-4.422 6.273-8.803l-1.686-1.399c-3.641 4.36-5.245 6.376-7.363 7.857-3.702-2.859-6.972-.926 2.118-20.629l-3.044-1.398c-10.653 23.076-16.289 19.27-13.656 4.03l-2.16-.37c-.966 5.595-1.357 8.166-2.468 10.51-4.463-.534-6.252 2.695-8.206-18.654l-3.353.308c.926 10.264 1.358 13.883.021 18.675-1.584.288-3.167.659-4.73 1.152-1.563-2.2-2.653-4.545-4.751-10.222l-2.057.761c2.077 5.677 3.003 8.042 3.147 10.819-4.443 1.871-4.381 5.8-17.112-12.238L155.703 39c12.443 17.626 9.811 16.083 6.5 19.641-2.283-1.09-4.422-2.632-8.803-6.273l-1.399 1.687c4.361 3.64 6.376 5.245 7.857 7.363-2.859 3.702-.926 6.993-20.649-2.118l-1.399 3.044c19.683 9.09 16.125 8.494 14.788 14.705-2.53.185-5.142-.082-10.736-1.05l-.391 2.181c5.615.967 8.165 1.357 10.51 2.468-.535 4.443 2.694 6.252-18.654 8.206l.308 3.332c10.263-.925 13.883-1.357 18.675-.02.925 5.203 3.579 4.812-9.091 9.481l.761 2.057c12.752-4.69 10.119-3.723 13.04 1.295-3.003 4.032-5.718 6.479-14.479 12.649l1.933 2.736c8.741-6.171 11.558-8.289 16.741-9.502 2.983 3.434 4.895 1.871-3.373 11.805l1.687 1.399c8.371-10.058 6.417-8.042 11.415-5.122-.597 4.834-1.769 8.351-6.171 17.894l3.044 1.398c9.091-19.682 8.495-16.124 14.706-14.787.185 2.509-.082 5.141-1.049 10.736l2.159.37c.967-5.615 1.358-8.165 2.468-10.51 4.443.535 6.253-2.694 8.207 18.654l3.352-.308c-.925-10.263-1.357-13.883-.02-18.675 5.224-.884 4.812-3.538 9.481 9.132z"/>
        <path fill="#767676" d="M165.432 108.414c-2.242.822-5.739-3.065-7.816-8.7-2.077-5.636-1.933-10.86.309-11.682 2.241-.823 5.738 3.064 7.815 8.7 2.057 5.635 1.933 10.859-.308 11.682zM220.572 77.625c-1.872.699-4.792-2.571-6.541-7.281-1.727-4.71-1.624-9.09.247-9.77 1.872-.699 4.792 2.572 6.541 7.281 1.748 4.71 1.645 9.07-.247 9.77zM161.976 76.267c-2.036-1.233-1.172-6.396 1.954-11.517 3.106-5.121 7.301-8.268 9.338-7.034 2.036 1.234 1.172 6.396-1.954 11.518-3.126 5.12-7.302 8.288-9.338 7.034zM194.554 114.625c-.246 2.591-4.565 4.278-9.645 3.784-5.06-.494-8.968-3.003-8.721-5.574.247-2.591 4.566-4.278 9.646-3.784 5.06.473 8.967 2.982 8.72 5.574zM205.249 55.392c-.246 2.591-4.566 4.278-9.646 3.784-5.059-.493-8.967-3.002-8.72-5.594.247-2.591 4.566-4.278 9.646-3.784 5.059.493 8.967 3.003 8.72 5.594zM217.034 105.781c.905 1.44-.637 4.072-3.476 5.841-2.838 1.789-5.861 2.057-6.766.617-.905-1.44.637-4.072 3.476-5.841 2.817-1.789 5.841-2.077 6.766-.617zM223.863 85.831c1.521.781 1.48 3.825-.062 6.808-1.543 2.961-4.031 4.73-5.533 3.949-1.522-.782-1.481-3.826.062-6.808 1.543-2.962 4.011-4.73 5.533-3.949zM192.847 77.707c-2.714 1.008-5.738-.39-6.745-3.106-1.008-2.714.39-5.738 3.105-6.746 2.715-1.007 5.738.391 6.746 3.106 1.028 2.735-.37 5.759-3.106 6.746zM210 88.628c-2.509.926-5.306-.37-6.232-2.88-.925-2.508.371-5.305 2.88-6.23 2.509-.926 5.306.37 6.232 2.878.905 2.51-.371 5.307-2.88 6.232zM200.971 102.696c-1.666.617-3.537-.247-4.154-1.913s.247-3.537 1.913-4.154 3.537.247 4.154 1.912c.617 1.687-.226 3.538-1.913 4.155zM184.682 96.423c-1.563.576-3.311-.226-3.887-1.79-.576-1.562.226-3.31 1.789-3.886 1.564-.576 3.312.226 3.888 1.789.576 1.563-.227 3.311-1.79 3.887zM176.414 83.322c-2.303.843-4.853-.33-5.697-2.633-.843-2.303.329-4.853 2.633-5.697 2.303-.843 4.854.33 5.697 2.633.864 2.303-.329 4.854-2.633 5.697zM177.854 103.025c-1.666.617-3.537-.247-4.154-1.913-.617-1.665.246-3.537 1.912-4.154s3.538.247 4.155 1.913c.617 1.686-.226 3.537-1.913 4.154zM203.563 68.822c-.946.35-1.995-.144-2.324-1.07-.35-.945.144-1.994 1.069-2.323.946-.35 1.995.144 2.324 1.07.371.925-.123 1.974-1.069 2.323zM184.189 69.933c-1.461.534-3.085-.206-3.62-1.687-.535-1.46.206-3.085 1.686-3.62 1.461-.534 3.085.206 3.62 1.687.535 1.46-.226 3.085-1.686 3.62zM194.205 90.13c-1.46.534-3.085-.206-3.62-1.687-.535-1.46.206-3.085 1.687-3.62 1.46-.535 3.085.206 3.619 1.687.515 1.46-.226 3.085-1.686 3.62zM213.579 101.277c-2.201.802-4.628-.309-5.45-2.51-.802-2.2.308-4.627 2.509-5.45 2.201-.802 4.627.309 5.45 2.51.823 2.22-.308 4.648-2.509 5.45zM198.544 119.499c-.946.35-1.995-.144-2.324-1.069-.349-.946.144-1.995 1.07-2.324.946-.35 1.995.144 2.324 1.069.37.946-.123 1.995-1.07 2.324zM156.279 80.628c-1.151.432-2.427-.165-2.859-1.317-.431-1.151.165-2.427 1.317-2.858 1.152-.432 2.427.164 2.859 1.316.431 1.152-.165 2.427-1.317 2.859zM180.116 55.927c-1.151.431-2.426-.165-2.858-1.317-.432-1.151.164-2.427 1.316-2.858 1.152-.432 2.427.164 2.859 1.316.411 1.172-.165 2.447-1.317 2.859z"/>
        <path fill="#9CA48D" d="M248.255 85.07c-2.098.206-4.052-2.077-4.36-5.1-.309-3.024 1.172-5.656 3.27-5.862 2.098-.206 4.052 2.077 4.36 5.1.309 3.024-1.152 5.656-3.27 5.862zM240.81 114.645c-1.995-.72-2.756-3.64-1.707-6.499 1.049-2.859 3.496-4.586 5.491-3.867 1.995.72 2.756 3.641 1.707 6.5-1.049 2.858-3.517 4.586-5.491 3.866zM219.667 134.986c-1.07-1.83.205-4.545 2.838-6.088 2.633-1.542 5.635-1.296 6.684.535 1.07 1.83-.205 4.545-2.838 6.088-2.633 1.522-5.615 1.295-6.684-.535zM190.4 142.37c-.021-2.119 2.427-3.867 5.471-3.908 3.044-.041 5.532 1.645 5.553 3.764.02 2.118-2.427 3.866-5.471 3.907-3.044.042-5.532-1.645-5.553-3.763zM161.256 135.212c.926-1.912 3.888-2.385 6.623-1.069 2.735 1.316 4.216 3.928 3.311 5.841-.925 1.913-3.887 2.386-6.622 1.069-2.736-1.316-4.216-3.948-3.312-5.841zM141.121 113.658c1.81-1.111 4.566.082 6.15 2.674 1.604 2.591 1.419 5.594-.37 6.705-1.81 1.11-4.566-.083-6.15-2.674-1.604-2.592-1.419-5.594.37-6.705zM133.08 84.597c2.098-.288 4.134 1.913 4.545 4.936.411 3.023-.946 5.697-3.044 5.985-2.098.288-4.134-1.913-4.545-4.936-.432-3.023.946-5.697 3.044-5.985zM139.455 55.988c2.078.453 3.229 3.23 2.571 6.191-.637 2.982-2.858 5.018-4.915 4.566-2.077-.453-3.229-3.23-2.571-6.19.658-2.962 2.859-5.02 4.915-4.567zM160.866 34.352c1.398 1.604.678 4.504-1.625 6.52-2.283 1.995-5.286 2.324-6.664.74-1.398-1.584-.658-4.504 1.625-6.52 2.283-1.995 5.265-2.324 6.664-.74zM190.688 27.256c.226 2.098-2.036 4.072-5.08 4.401-3.024.33-5.656-1.13-5.882-3.229-.227-2.097 2.056-4.072 5.08-4.4 3.023-.31 5.656 1.13 5.882 3.228zM220.345 35.051c-.843 1.933-3.804 2.53-6.581 1.296-2.777-1.214-4.36-3.785-3.496-5.718.843-1.933 3.805-2.51 6.581-1.296 2.777 1.234 4.34 3.785 3.496 5.718zM241.612 55.844c-1.707 1.255-4.546.288-6.355-2.16-1.81-2.447-1.872-5.45-.186-6.704 1.708-1.255 4.546-.288 6.356 2.16 1.81 2.426 1.892 5.45.185 6.704zM239.432 71.29c-1.337.555-3.065-.555-3.867-2.468-.802-1.913-.37-3.928.967-4.484 1.337-.555 3.064.556 3.866 2.469.802 1.912.35 3.928-.966 4.483zM239.329 97.348c-1.44-.144-2.427-1.954-2.201-4.01.206-2.057 1.563-3.62 3.003-3.476 1.44.165 2.427 1.954 2.201 4.01-.227 2.078-1.563 3.62-3.003 3.476zM226.084 119.89c-1.173-.843-1.132-2.9.082-4.587 1.213-1.686 3.147-2.365 4.319-1.522 1.172.844 1.131 2.9-.082 4.587-1.214 1.686-3.147 2.365-4.319 1.522zM204.468 133.464c-.473-1.357.74-3.023 2.694-3.702 1.954-.679 3.928-.123 4.401 1.234.473 1.358-.74 3.024-2.694 3.702-1.954.7-3.928.144-4.401-1.234zM179.047 133.115c.35-1.399 2.262-2.119 4.278-1.625 2.015.514 3.352 2.056 3.003 3.455-.35 1.399-2.283 2.118-4.278 1.625-1.995-.514-3.353-2.057-3.003-3.455zM155.909 120.713c.864-1.173 2.9-1.111 4.586.123 1.666 1.234 2.345 3.167 1.481 4.34-.864 1.151-2.9 1.11-4.586-.124-1.666-1.234-2.345-3.188-1.481-4.339zM142.047 99.282c1.275-.7 3.106.226 4.093 2.056.987 1.831.761 3.867-.514 4.546-1.276.678-3.106-.247-4.093-2.057-.967-1.81-.741-3.846.514-4.545zM142.129 73.635c1.44.185 2.365 2.015 2.098 4.072-.267 2.057-1.645 3.579-3.085 3.373-1.44-.185-2.365-2.016-2.098-4.072.268-2.036 1.646-3.558 3.085-3.373zM154.325 50.209c1.296.658 1.584 2.674.638 4.545-.946 1.851-2.735 2.818-4.031 2.18-1.296-.658-1.563-2.694-.638-4.545.946-1.851 2.756-2.838 4.031-2.18zM176.99 36.655c.535 1.358-.617 3.044-2.55 3.805-1.933.761-3.928.288-4.463-1.07-.535-1.336.617-3.043 2.55-3.804 1.934-.761 3.929-.288 4.463 1.07zM202.802 36.347c0 1.44-1.666 2.632-3.743 2.632-2.078.021-3.764-1.151-3.764-2.591 0-1.44 1.666-2.633 3.743-2.633 2.057-.02 3.743 1.132 3.764 2.592zM225.775 49.16c-.823 1.193-2.879 1.172-4.586-.02-1.707-1.194-2.407-3.127-1.563-4.3.822-1.171 2.879-1.171 4.586.021 1.707 1.193 2.406 3.127 1.563 4.299zM176.49 199.418l.72.629c3.903-4.455 3.097-3.536 5.262-2.224-.313 2.161-.838 3.672-2.904 7.861l1.31.644c4.152-8.439 4.11-7.109 6.163-6.584.059 1.101-.086 2.241-.565 4.678l.937.183c.484-2.428.677-3.534 1.179-4.543 2.002.319 2.862-1.1 3.492 8.338l1.457-.1c-.628-9.489-.104-7.947 2.544-8.727.594.922 1.041 1.985 1.838 4.328l.904-.308c-1.84-5.4-1.518-4.247.607-5.406 1.615 1.295 2.666 2.55 5.177 6.297l1.219-.818c-5.184-7.752-4.067-6.788-2.333-8.571 1.058.517 1.964 1.187 3.951 2.922l.628-.72c-1.974-1.732-2.826-2.452-3.46-3.485 1.302-1.638.462-3.141 9.102 1.115l.651-1.314c-4.184-2.059-5.583-2.696-7.128-4.427.208-.573.392-1.153.544-1.736 1.101-.059 2.242.086 4.678.565l.183-.937c-2.428-.484-3.534-.678-4.542-1.18.322-2.013-1.1-2.861 8.337-3.491l-.099-1.457c-11.055.735-10.774-2.215-4.392-4.386l-.308-.904c-2.343.797-3.409 1.183-4.538 1.247-.726-1.82-2.335-1.831 5.429-7.031l-.817-1.219c-3.736 2.494-5.031 3.415-7.144 3.902-.441-.546-.913-1.075-1.427-1.57.516-1.057 1.186-1.963 2.921-3.95l-.72-.629c-1.74 1.979-2.452 2.827-3.485 3.461-1.642-1.31-3.133-.467 1.116-9.102l-1.282-.609c-4.151 8.439-4.11 7.11-6.162 6.584-.059-1.101.085-2.241.565-4.677l-.937-.184c-.484 2.428-.678 3.534-1.18 4.543-2.013-.322-2.869 1.104-3.496-8.346l-1.456.1c.625 9.43.111 7.943-2.545 8.727-.598-.93-1.041-1.985-1.838-4.328l-.916.305c.801 2.351 1.184 3.409 1.248 4.538-1.812.721-1.832 2.335-7.032-5.429l-1.211.813c2.495 3.735 3.415 5.031 3.903 7.144-1.799 1.439-1.096 2.373-5.525-1.502l-.629.72c4.455 3.903 3.536 3.097 2.224 5.261-2.169-.309-3.672-.837-7.861-2.904l-.644 1.311c4.185 2.058 5.583 2.695 7.129 4.426-.693 1.858.304 2.264-5.223 1.171l-.183.937c5.595 1.107 4.416.779 4.341 3.301-1.975.78-3.565 1.065-8.136 1.37l.1 1.457c9.429-.625 7.943-.112 8.727 2.545-.922.594-1.986 1.04-4.328 1.837l.308.904c2.351-.801 3.409-1.183 4.538-1.247.722 1.812 2.335 1.831-5.429 7.031l.817 1.219c3.736-2.495 5.031-3.415 7.144-3.903 1.428 1.816 2.358 1.105-1.518 5.534z"/>
        <path fill="#767676" d="M177.156 178.361c-.783-.687-.024-2.836 1.699-4.806 1.724-1.971 3.754-3.005 4.536-2.318.783.686.024 2.835-1.7 4.805-1.728 1.963-3.753 3.005-4.535 2.319zM200.44 193.045c-.658-.571-.015-2.371 1.423-4.022 1.443-1.644 3.141-2.518 3.791-1.943.658.57.015 2.37-1.423 4.022-1.438 1.651-3.128 2.521-3.791 1.943zM188.739 170.334c.048-1.037 2.204-1.783 4.816-1.654 2.608.12 4.688 1.07 4.64 2.107-.048 1.036-2.204 1.782-4.816 1.654-2.612-.129-4.695-1.066-4.64-2.107zM180.852 190.803c-1.043.446-2.59-.855-3.46-2.903-.866-2.039-.721-4.058.314-4.5 1.044-.446 2.59.856 3.461 2.903.874 2.035.728 4.054-.315 4.5zM205.755 182.543c-1.044.446-2.59-.855-3.461-2.903-.866-2.039-.721-4.058.323-4.504 1.043-.446 2.59.855 3.46 2.902.866 2.04.721 4.059-.322 4.505zM188.926 197.563c-.363.647-1.692.605-2.961-.112-1.277-.713-2.01-1.815-1.647-2.461.362-.647 1.691-.606 2.96.112 1.273.705 2.013 1.802 1.648 2.461zM197.986 196.016c.018.745-1.156 1.365-2.619 1.396-1.455.027-2.651-.556-2.665-1.294-.018-.745 1.155-1.365 2.618-1.396 1.456-.027 2.647.548 2.666 1.294zM194.627 182.45c-.952-.829-1.048-2.278-.219-3.23.829-.951 2.278-1.047 3.23-.218s1.047 2.278.218 3.23c-.832.964-2.281 1.059-3.229.218zM194.024 191.293c-.878-.767-.965-2.108-.198-2.985.768-.878 2.109-.965 2.986-.198.878.767.965 2.108.198 2.986-.772.869-2.108.965-2.986.197zM186.756 190.772c-.583-.509-.643-1.406-.134-1.99.509-.583 1.405-.643 1.989-.134.584.509.643 1.406.134 1.989-.516.588-1.401.651-1.989.135zM185.76 183.228c-.546-.478-.604-1.314-.126-1.861.478-.546 1.315-.604 1.861-.125.547.478.604 1.314.126 1.861-.478.546-1.315.604-1.861.125zM189.05 177.331c-.803-.705-.886-1.926-.18-2.729.706-.803 1.926-.887 2.729-.181.804.706.887 1.927.181 2.73-.702.811-1.927.886-2.73.18zM181.809 181.992c-.584-.509-.643-1.406-.134-1.989.508-.584 1.405-.644 1.989-.135.583.509.643 1.406.134 1.989-.517.588-1.401.652-1.989.135zM200.262 184.699c-.331-.29-.361-.794-.075-1.113.289-.331.794-.361 1.113-.075.331.289.361.793.075 1.112-.277.335-.782.365-1.113.076zM195.796 177.515c-.509-.448-.564-1.224-.109-1.738.447-.509 1.224-.564 1.737-.109.51.447.565 1.224.11 1.737-.448.509-1.228.557-1.738.11zM190.155 185.561c-.509-.448-.565-1.224-.109-1.738.447-.509 1.223-.564 1.737-.109.509.447.565 1.224.109 1.737-.451.502-1.228.557-1.737.11zM189.929 195.301c-.766-.675-.847-1.835-.176-2.609.675-.766 1.835-.847 2.609-.177.766.676.847 1.836.176 2.61-.678.778-1.843.851-2.609.176zM179.818 193.347c-.331-.289-.361-.793-.075-1.112.289-.332.794-.361 1.113-.076.331.289.361.794.075 1.113-.285.339-.789.369-1.113.075zM185.882 169.063c-.405-.351-.443-.964-.092-1.369.35-.406.963-.443 1.368-.093.406.351.444.964.093 1.369-.351.406-.963.443-1.369.093zM200.308 173.035c-.405-.351-.443-.963-.092-1.369.35-.406.963-.443 1.368-.092.406.35.444.963.093 1.368-.363.402-.971.448-1.369.093z"/>
        <path fill="#9CA48D" d="M203.364 205.194c-.516-.76-.05-1.984 1.043-2.733 1.093-.749 2.41-.731 2.926.029s.05 1.984-1.043 2.733c-1.093.748-2.405.739-2.926-.029zM190.491 208.512c-.14-.914.819-1.814 2.132-2.009 1.313-.194 2.485.382 2.625 1.296.141.914-.818 1.814-2.131 2.009-1.313.194-2.489-.39-2.626-1.296zM178.296 204.662c.478-.791 1.783-.869 2.922-.183 1.14.686 1.671 1.886 1.19 2.67-.478.791-1.783.869-2.923.183-1.131-.69-1.666-1.879-1.189-2.67zM169.366 195c.807-.45 1.986.122 2.637 1.279.65 1.156.524 2.46-.283 2.91-.806.45-1.986-.122-2.636-1.279-.651-1.156-.525-2.461.282-2.91zM166.027 182.352c.925-.045 1.724.99 1.791 2.312.067 1.321-.624 2.433-1.545 2.485-.925.045-1.724-.99-1.791-2.311-.067-1.322.632-2.438 1.545-2.486zM170.078 170.15c.803.461.921 1.764.259 2.911-.657 1.155-1.845 1.71-2.643 1.257-.803-.461-.921-1.765-.26-2.912.658-1.154 1.846-1.71 2.644-1.256zM179.524 161.011c.548.742.13 1.981-.941 2.769-1.072.788-2.378.826-2.926.083-.547-.743-.13-1.981.942-2.769 1.067-.796 2.378-.826 2.925-.083zM191.804 157.484c.26.89-.562 1.91-1.833 2.275-1.275.378-2.517-.047-2.773-.929-.26-.889.563-1.909 1.833-2.275 1.271-.366 2.517.048 2.773.929zM204.551 161.167c-.322.87-1.582 1.199-2.834.738-1.24-.458-1.992-1.539-1.673-2.397.314-.865 1.586-1.191 2.834-.738 1.24.458 1.988 1.531 1.673 2.397zM213.487 171.102c-.756.524-1.983.07-2.744-1.027-.757-1.089-.747-2.401.009-2.925s1.988-.062 2.744 1.027c.749 1.093.747 2.4-.009 2.925zM216.689 184.079c-.916.08-1.762-.929-1.869-2.249-.114-1.316.539-2.458 1.459-2.531.916-.08 1.754.933 1.869 2.249.107 1.32-.543 2.451-1.459 2.531zM213.165 196.556c-.836-.392-1.058-1.68-.499-2.883.56-1.204 1.696-1.853 2.528-1.47.836.392 1.058 1.68.499 2.883-.551 1.199-1.691 1.861-2.528 1.47zM206.799 198.943c-.492-.396-.427-1.289.138-1.995.565-.706 1.426-.961 1.918-.565.491.396.426 1.288-.139 1.994s-1.43.954-1.917.566zM196.803 204.338c-.245-.581.242-1.336 1.076-1.679.83-.35 1.712-.156 1.957.425.237.585-.242 1.336-1.076 1.678-.843.347-1.712.157-1.957-.424zM185.413 203.97c.078-.625.874-1.038 1.772-.926.899.113 1.562.712 1.484 1.336-.079.625-.874 1.038-1.773.925-.899-.112-1.562-.711-1.483-1.335zM175.709 198.527c.421-.464 1.311-.347 1.979.259.667.606.866 1.478.445 1.942-.421.464-1.311.347-1.979-.259-.675-.602-.874-1.474-.445-1.942zM170.541 188.724c.608-.158 1.282.424 1.514 1.298.223.879-.088 1.713-.697 1.87-.608.158-1.286-.432-1.514-1.298-.219-.871.088-1.712.697-1.87zM170.462 177.281c.629.086 1.03.879.909 1.781-.125.895-.723 1.558-1.352 1.472-.621-.09-1.03-.878-.909-1.781.125-.895.731-1.562 1.352-1.472zM175.774 167.506c.533.342.561 1.235.066 1.995-.495.76-1.321 1.098-1.847.751-.526-.346-.553-1.24-.066-1.995.491-.748 1.317-1.086 1.847-.751zM185.608 162.188c.229.59-.279 1.326-1.122 1.652-.843.327-1.713.117-1.934-.477-.23-.59.278-1.326 1.121-1.652.835-.323 1.705-.113 1.935.477zM197.118 161.971c.018.633-.693 1.163-1.607 1.192-.906.024-1.649-.46-1.675-1.089-.019-.633.705-1.16 1.606-1.192.906-.024 1.662.463 1.676 1.089zM207.032 167.819c-.408.488-1.293.399-1.988-.183-.694-.581-.929-1.443-.521-1.931.4-.484 1.294-.399 1.988.183.694.581.93 1.443.521 1.931zM212.534 177.634c-.551.301-1.355-.088-1.789-.883-.441-.791-.344-1.681.207-1.982.551-.3 1.355.089 1.789.884.437.783.347 1.669-.207 1.981zM212.421 189.1c-.628-.066-1.049-.858-.949-1.76.101-.902.695-1.573 1.319-1.495.621.071 1.05.858.949 1.76-.1.902-.695 1.573-1.319 1.495zM84.645 189.031l1.102.961c5.969-6.812 4.736-5.406 8.046-3.4-.478 3.305-1.28 5.616-4.441 12.023l2.004.984c6.35-12.906 6.286-10.873 9.425-10.069.09 1.684-.131 3.428-.864 7.153l1.433.281c.74-3.713 1.036-5.405 1.804-6.948 3.06.488 4.377-1.682 5.34 12.752l2.228-.152c-.96-14.514-.159-12.155 3.891-13.347.909 1.409 1.592 3.036 2.811 6.619l1.382-.472c-2.813-8.258-2.321-6.496.929-8.267 2.469 1.981 4.077 3.9 7.917 9.63l1.864-1.25c-7.928-11.857-6.219-10.383-3.567-13.109 1.617.79 3.003 1.815 6.042 4.469l.961-1.102c-3.02-2.648-4.323-3.75-5.293-5.329 1.992-2.506.708-4.805 13.921 1.705l.996-2.01c-6.4-3.149-8.538-4.123-10.902-6.77.319-.876.6-1.763.833-2.655 1.684-.09 3.428.13 7.154.864l.28-1.433c-3.713-.74-5.405-1.037-6.947-1.804.492-3.079-1.682-4.377 12.751-5.34l-.152-2.228c-16.907 1.124-16.477-3.389-6.716-6.709l-.472-1.382c-3.583 1.219-5.213 1.81-6.939 1.908-1.111-2.783-3.572-2.801 8.302-10.754l-1.25-1.864c-5.713 3.815-7.694 5.222-10.925 5.968-.674-.835-1.396-1.644-2.183-2.401.789-1.617 1.814-3.003 4.468-6.042l-1.102-.961c-2.66 3.027-3.749 4.323-5.329 5.293-2.512-2.004-4.792-.715 1.706-13.921l-1.96-.931c-6.349 12.906-6.285 10.873-9.424 10.07-.091-1.684.13-3.428.864-7.154l-1.434-.281c-.74 3.714-1.036 5.406-1.804 6.948-3.079-.493-4.388 1.689-5.346-12.763l-2.228.152c.957 14.421.171 12.148-3.891 13.347-.916-1.422-1.592-3.036-2.811-6.619l-1.4.466c1.224 3.595 1.809 5.213 1.907 6.94-2.771 1.104-2.8 3.571-10.754-8.303l-1.852 1.244c3.815 5.712 5.223 7.694 5.969 10.925-2.751 2.202-1.676 3.63-8.45-2.297l-.962 1.101c6.813 5.969 5.407 4.736 3.401 8.047-3.317-.472-5.616-1.281-12.023-4.442l-.984 2.005c6.4 3.148 8.539 4.122 10.902 6.769-1.06 2.841.466 3.462-7.986 1.791l-.281 1.434c8.557 1.692 6.754 1.191 6.639 5.048-3.02 1.192-5.453 1.628-12.443 2.096l.152 2.227c14.422-.956 12.149-.17 13.347 3.892-1.41.909-3.036 1.592-6.619 2.81l.472 1.383c3.595-1.225 5.213-1.81 6.94-1.908 1.104 2.771 3.571 2.801-8.303 10.754l1.25 1.864c5.713-3.815 7.694-5.223 10.926-5.969 2.184 2.776 3.606 1.689-2.322 8.463z"/>
        <path fill="#767676" d="M85.663 156.827c-1.197-1.05-.037-4.337 2.6-7.35 2.636-3.014 5.74-4.596 6.936-3.546 1.197 1.05.037 4.337-2.6 7.35-2.642 3.002-5.74 4.596-6.936 3.546zM121.274 179.284c-1.006-.872-.024-3.625 2.176-6.151 2.206-2.513 4.803-3.85 5.797-2.971 1.007.872.024 3.625-2.175 6.151-2.2 2.525-4.785 3.856-5.798 2.971zM103.378 144.55c.073-1.585 3.371-2.726 7.366-2.53 3.988.185 7.168 1.637 7.096 3.223-.073 1.585-3.371 2.726-7.366 2.53-3.995-.197-7.181-1.63-7.096-3.223zM91.316 175.856c-1.596.682-3.96-1.308-5.292-4.44-1.325-3.119-1.102-6.207.481-6.882 1.596-.682 3.96 1.308 5.292 4.439 1.337 3.113 1.115 6.201-.48 6.883zM129.401 163.223c-1.595.682-3.96-1.308-5.292-4.44-1.325-3.119-1.102-6.207.494-6.889 1.595-.682 3.96 1.308 5.292 4.44 1.324 3.119 1.102 6.207-.494 6.889zM103.663 186.194c-.554.989-2.587.926-4.528-.171-1.952-1.091-3.073-2.775-2.519-3.764.554-.989 2.587-.926 4.528.171 1.946 1.079 3.079 2.757 2.519 3.764zM117.52 183.828c.028 1.14-1.767 2.087-4.005 2.135-2.226.042-4.055-.851-4.076-1.979-.028-1.14 1.767-2.087 4.004-2.135 2.226-.042 4.049.839 4.077 1.979zM112.383 163.081c-1.456-1.268-1.602-3.484-.334-4.94 1.268-1.455 3.484-1.601 4.939-.333 1.456 1.267 1.602 3.483.334 4.939-1.273 1.475-3.489 1.62-4.939.334zM111.461 176.605c-1.342-1.173-1.476-3.224-.302-4.566 1.173-1.342 3.224-1.476 4.566-.302 1.342 1.173 1.476 3.224.302 4.566-1.18 1.33-3.224 1.476-4.566.302zM100.346 175.807c-.893-.778-.984-2.149-.206-3.042.779-.892 2.15-.984 3.042-.205.893.778.984 2.149.206 3.042-.79.899-2.143.996-3.042.205zM98.822 164.271c-.835-.731-.924-2.01-.192-2.846.731-.836 2.01-.924 2.846-.193.836.732.924 2.011.192 2.847-.731.835-2.01.923-2.846.192zM103.854 155.252c-1.228-1.079-1.355-2.946-.276-4.174 1.079-1.229 2.946-1.356 4.175-.276 1.228 1.079 1.355 2.946.276 4.174-1.073 1.241-2.947 1.356-4.175.276zM92.78 162.38c-.893-.778-.984-2.15-.206-3.042.778-.893 2.15-.984 3.042-.206.893.779.984 2.15.206 3.042-.791.9-2.144.996-3.043.206zM121.001 166.52c-.506-.443-.552-1.214-.115-1.702.443-.506 1.214-.552 1.702-.115.506.442.552 1.213.115 1.701-.424.512-1.195.558-1.702.116zM114.172 155.533c-.779-.685-.864-1.872-.168-2.657.684-.779 1.872-.864 2.657-.168.779.685.864 1.872.168 2.657-.685.779-1.879.852-2.657.168zM105.544 167.838c-.779-.684-.864-1.871-.168-2.657.685-.779 1.872-.863 2.657-.167.779.684.864 1.871.168 2.657-.691.767-1.879.851-2.657.167zM105.198 182.735c-1.172-1.032-1.296-2.807-.27-3.991 1.033-1.171 2.808-1.295 3.991-.269 1.172 1.032 1.296 2.807.27 3.99-1.038 1.19-2.82 1.302-3.991.27zM89.735 179.747c-.506-.443-.552-1.214-.115-1.702.442-.506 1.214-.552 1.702-.115.506.442.552 1.214.115 1.701-.436.519-1.207.565-1.702.116zM99.009 142.606c-.62-.536-.678-1.473-.142-2.093.537-.62 1.474-.678 2.094-.142.62.537.678 1.474.141 2.094-.536.62-1.473.678-2.093.141zM121.072 148.681c-.621-.536-.678-1.473-.142-2.093.537-.62 1.474-.678 2.094-.141.62.536.677 1.473.141 2.093-.555.615-1.485.684-2.093.141z"/>
        <path fill="#9CA48D" d="M125.746 197.864c-.79-1.162-.077-3.034 1.595-4.179 1.671-1.145 3.684-1.118 4.474.045.79 1.162.076 3.034-1.595 4.179-1.671 1.145-3.678 1.13-4.474-.045zM106.058 202.939c-.215-1.397 1.252-2.774 3.26-3.072 2.008-.298 3.8.584 4.015 1.981.215 1.398-1.252 2.775-3.26 3.073-2.008.297-3.807-.596-4.015-1.982zM87.407 197.051c.73-1.21 2.726-1.33 4.469-.28 1.743 1.049 2.556 2.885 1.82 4.083-.731 1.21-2.727 1.329-4.47.28-1.73-1.055-2.55-2.873-1.819-4.083zM73.75 182.274c1.233-.688 3.037.187 4.032 1.956.995 1.768.802 3.763-.432 4.451-1.233.688-3.037-.187-4.032-1.956-.995-1.769-.802-3.764.431-4.451zM68.643 162.931c1.415-.069 2.637 1.514 2.739 3.535.102 2.021-.955 3.721-2.363 3.802-1.415.068-2.637-1.515-2.739-3.536-.102-2.021.967-3.727 2.363-3.801zM74.838 144.269c1.228.705 1.409 2.699.397 4.453-1.005 1.765-2.822 2.615-4.043 1.922-1.228-.706-1.408-2.699-.397-4.453 1.006-1.766 2.823-2.615 4.043-1.922zM89.285 130.292c.838 1.136.2 3.03-1.44 4.235-1.638 1.205-3.636 1.264-4.474.127-.837-1.136-.199-3.03 1.44-4.235 1.632-1.217 3.637-1.263 4.474-.127zM108.066 124.899c.398 1.36-.86 2.92-2.804 3.479-1.949.578-3.85-.072-4.241-1.421-.397-1.36.861-2.92 2.804-3.479 1.944-.56 3.85.072 4.241 1.421zM127.561 130.531c-.493 1.33-2.42 1.834-4.335 1.128-1.896-.7-3.047-2.353-2.559-3.664.481-1.324 2.427-1.822 4.335-1.129 1.896.7 3.04 2.341 2.559 3.665zM141.227 145.724c-1.156.802-3.034.107-4.197-1.569-1.157-1.665-1.142-3.672.014-4.474 1.156-.801 3.04-.095 4.197 1.57 1.145 1.672 1.142 3.672-.014 4.473zM146.124 165.572c-1.401.123-2.695-1.42-2.858-3.439-.175-2.013.824-3.76 2.232-3.871 1.4-.123 2.682 1.427 2.858 3.439.163 2.019-.832 3.748-2.232 3.871zM140.735 184.653c-1.279-.599-1.618-2.569-.763-4.409.855-1.84 2.593-2.834 3.866-2.247 1.279.599 1.618 2.569.763 4.409-.844 1.834-2.587 2.846-3.866 2.247zM130.998 188.304c-.752-.605-.653-1.971.211-3.05.864-1.08 2.182-1.47 2.933-.865.752.606.653 1.971-.211 3.051s-2.188 1.458-2.933.864zM115.711 196.555c-.375-.888.37-2.043 1.646-2.567 1.269-.536 2.617-.24 2.992.649.363.895-.369 2.044-1.646 2.568-1.288.53-2.617.239-2.992-.65zM98.29 195.992c.12-.955 1.338-1.587 2.712-1.415 1.374.173 2.388 1.088 2.269 2.043-.12.955-1.337 1.587-2.712 1.415-1.374-.173-2.388-1.088-2.268-2.043zM83.45 187.668c.644-.71 2.006-.531 3.026.396 1.02.928 1.326 2.261.682 2.971-.644.709-2.006.53-3.027-.397-1.032-.92-1.337-2.253-.681-2.97zM75.546 172.676c.93-.241 1.962.649 2.316 1.986.342 1.344-.135 2.618-1.065 2.86-.93.241-1.968-.661-2.316-1.986-.335-1.332.135-2.619 1.065-2.86zM75.426 155.175c.962.132 1.575 1.344 1.39 2.725-.19 1.368-1.106 2.382-2.068 2.251-.95-.139-1.575-1.344-1.39-2.724.19-1.369 1.118-2.39 2.068-2.252zM83.55 140.225c.816.524.858 1.89.1 3.052-.756 1.162-2.02 1.679-2.824 1.149-.804-.53-.846-1.897-.101-3.052.75-1.143 2.015-1.66 2.824-1.149zM98.589 132.092c.35.902-.425 2.028-1.715 2.527-1.289.5-2.62.179-2.958-.73-.351-.901.425-2.027 1.714-2.527 1.278-.493 2.608-.171 2.959.73zM116.192 131.76c.028.968-1.06 1.78-2.457 1.823-1.386.037-2.522-.702-2.562-1.664-.028-.969 1.078-1.775 2.457-1.823 1.385-.037 2.541.708 2.562 1.664zM131.356 140.704c-.624.746-1.979.61-3.041-.279-1.062-.889-1.422-2.208-.798-2.954.612-.739 1.979-.609 3.041.28 1.062.889 1.422 2.207.798 2.953zM139.769 155.716c-.843.459-2.072-.136-2.735-1.352-.674-1.209-.526-2.57.317-3.03.842-.459 2.072.136 2.735 1.352.668 1.197.531 2.552-.317 3.03zM139.596 173.251c-.96-.101-1.604-1.312-1.45-2.691.153-1.38 1.062-2.406 2.017-2.286.949.107 1.605 1.311 1.451 2.691-.154 1.38-1.062 2.406-2.018 2.286z"/>
    </g>
    <defs>
        <clipPath id="clip0">
            <path fill="#fff" d="M0 0H240V240H0z" transform="translate(48)"/>
        </clipPath>
    </defs>
</svg>
